<svg data-v-423bf9ae="" xmlns="http://www.w3.org/2000/svg" viewBox="0 0 354 94" class="iconLeft"><!----><!----><defs data-v-423bf9ae=""><linearGradient data-v-423bf9ae="" gradientTransform="rotate(25)" id="b7c5a7c0-5e4f-4c67-a170-c44fe852d667" x1="0%" y1="0%" x2="100%" y2="0%"><stop data-v-423bf9ae="" offset="0%" style="stop-color: rgb(0, 0, 0); stop-opacity: 1;"></stop><stop data-v-423bf9ae="" offset="100%" style="stop-color: rgb(64, 114, 156); stop-opacity: 1;"></stop></linearGradient></defs><g data-v-423bf9ae="" id="ea67cf74-8851-4163-815b-b1a70b88816c" fill="url(#b7c5a7c0-5e4f-4c67-a170-c44fe852d667)" transform="matrix(4.792332458192386,0,0,4.792332458192386,106.10627923840259,-0.2457476608079432)"><path d="M0.53 5.17L6.62 5.17L6.62 7.01L6.08 7.01L5.78 5.89L3.04 5.89L3.04 9.34L5.07 9.34L5.36 8.41L5.87 8.41L5.87 10.95L5.36 10.95L5.03 9.98L3.04 9.98L3.04 12.96L4.62 13.24L4.62 13.72L0.53 13.72L0.53 13.26L1.86 12.98L1.86 5.91L0.53 5.63L0.53 5.17ZM10.89 13.72L7.21 13.72L7.21 13.26L8.47 12.98L8.47 4.54L7.21 4.40L7.21 4.07L9.25 3.54L9.63 3.54L9.63 12.98L10.89 13.26L10.89 13.72ZM14.97 6.72L14.97 6.72Q16.65 6.72 17.43 7.71L17.43 7.71L17.43 7.71Q18.21 8.69 18.21 10.32L18.21 10.32L18.21 10.32Q18.21 11.90 17.42 12.88L17.42 12.88L17.42 12.88Q16.62 13.86 14.97 13.86L14.97 13.86L14.97 13.86Q13.31 13.86 12.51 12.87L12.51 12.87L12.51 12.87Q11.70 11.89 11.70 10.32L11.70 10.32L11.70 10.32Q11.70 8.71 12.50 7.71L12.50 7.71L12.50 7.71Q13.30 6.72 14.97 6.72L14.97 6.72ZM16.93 10.28L16.93 10.28Q16.93 8.90 16.48 8.14L16.48 8.14L16.48 8.14Q16.04 7.38 14.92 7.38L14.92 7.38L14.92 7.38Q13.86 7.38 13.43 8.15L13.43 8.15L13.43 8.15Q12.99 8.92 12.99 10.28L12.99 10.28L12.99 10.28Q12.99 11.66 13.44 12.43L13.44 12.43L13.44 12.43Q13.89 13.19 15.01 13.19L15.01 13.19L15.01 13.19Q16.10 13.19 16.51 12.43L16.51 12.43L16.51 12.43Q16.93 11.68 16.93 10.28L16.93 10.28ZM29.29 7.25L28.41 7.55L26.33 13.78L25.65 13.90L24.01 9.18L22.44 13.78L21.76 13.90L19.57 7.55L18.79 7.25L18.79 6.85L21.63 6.85L21.63 7.25L20.76 7.55L22.30 12.15L23.83 7.48L24.57 7.38L26.19 12.15L27.64 7.55L26.43 7.25L26.43 6.85L29.29 6.85L29.29 7.25ZM33.68 4.96L33.68 4.96Q35.74 4.96 36.72 6.19L36.72 6.19L36.72 6.19Q37.70 7.42 37.70 9.41L37.70 9.41L37.70 9.41Q37.70 11.38 36.72 12.61L36.72 12.61L36.72 12.61Q35.73 13.85 33.68 13.85L33.68 13.85L33.68 13.85Q31.64 13.85 30.64 12.61L30.64 12.61L30.64 12.61Q29.64 11.38 29.64 9.41L29.64 9.41L29.64 9.41Q29.64 7.43 30.63 6.20L30.63 6.20L30.63 6.20Q31.63 4.96 33.68 4.96L33.68 4.96ZM36.44 9.41L36.44 9.41Q36.44 7.90 35.80 6.76L35.80 6.76L35.80 6.76Q35.17 5.63 33.60 5.63L33.60 5.63L33.60 5.63Q32.09 5.63 31.49 6.76L31.49 6.76L31.49 6.76Q30.90 7.88 30.90 9.41L30.90 9.41L30.90 9.41Q30.90 10.91 31.54 12.04L31.54 12.04L31.54 12.04Q32.17 13.17 33.73 13.17L33.73 13.17L33.73 13.17Q35.27 13.17 35.85 12.05L35.85 12.05L35.85 12.05Q36.44 10.92 36.44 9.41L36.44 9.41ZM38.51 16.06L38.51 15.67L39.76 15.30L39.76 7.70L38.51 7.56L38.51 7.24L38.51 7.24Q39.34 7.03 40.36 6.87L40.36 6.87L40.36 6.87Q41.38 6.72 42.14 6.72L42.14 6.72L42.14 6.72Q44.11 6.72 44.94 7.69L44.94 7.69L44.94 7.69Q45.77 8.65 45.77 10.32L45.77 10.32L45.77 10.32Q45.77 11.86 44.98 12.79L44.98 12.79L44.98 12.79Q44.20 13.72 42.76 13.72L42.76 13.72L42.76 13.72Q42.13 13.72 41.61 13.57L41.61 13.57L41.78 13.05L41.78 13.05Q42.03 13.08 42.25 13.08L42.25 13.08L42.25 13.08Q43.57 13.08 44.02 12.31L44.02 12.31L44.02 12.31Q44.48 11.54 44.48 10.26L44.48 10.26L44.48 10.26Q44.48 9.45 44.33 8.84L44.33 8.84L44.33 8.84Q44.18 8.23 43.69 7.82L43.69 7.82L43.69 7.82Q43.20 7.41 42.25 7.41L42.25 7.41L42.25 7.41Q41.66 7.41 40.92 7.64L40.92 7.64L40.92 15.29L42.34 15.65L42.34 16.06L38.51 16.06ZM49.45 7.43L49.45 7.43Q48.78 7.43 48.41 7.69L48.41 7.69L48.41 7.69Q48.05 7.95 48.05 8.43L48.05 8.43L48.05 8.43Q48.05 8.88 48.27 9.10L48.27 9.10L48.27 9.10Q48.48 9.32 49.06 9.53L49.06 9.53L50.06 9.90L50.06 9.90Q50.96 10.21 51.29 10.62L51.29 10.62L51.29 10.62Q51.62 11.03 51.62 11.73L51.62 11.73L51.62 11.73Q51.62 12.73 50.95 13.29L50.95 13.29L50.95 13.29Q50.29 13.86 49.03 13.86L49.03 13.86L49.03 13.86Q48.54 13.86 47.97 13.76L47.97 13.76L47.97 13.76Q47.40 13.66 46.96 13.50L46.96 13.50L47.15 11.87L47.59 11.87L47.88 13.02L47.88 13.02Q48.47 13.19 49.10 13.19L49.10 13.19L49.10 13.19Q49.80 13.19 50.18 12.88L50.18 12.88L50.18 12.88Q50.57 12.57 50.57 11.94L50.57 11.94L50.57 11.94Q50.57 11.58 50.31 11.33L50.31 11.33L50.31 11.33Q50.05 11.09 49.39 10.85L49.39 10.85L48.51 10.54L48.51 10.54Q47.75 10.26 47.41 9.83L47.41 9.83L47.41 9.83Q47.07 9.39 47.07 8.69L47.07 8.69L47.07 8.69Q47.07 7.76 47.68 7.24L47.68 7.24L47.68 7.24Q48.29 6.72 49.49 6.72L49.49 6.72L49.49 6.72Q50.39 6.72 51.37 7.17L51.37 7.17L51.14 8.67L50.72 8.67L50.43 7.64L50.43 7.64Q50.25 7.56 49.96 7.50L49.96 7.50L49.96 7.50Q49.67 7.43 49.45 7.43L49.45 7.43Z"></path></g><defs data-v-423bf9ae=""><linearGradient data-v-423bf9ae="" gradientTransform="rotate(25)" id="5bb2847f-2f16-496f-9cc0-b476a2e79786" x1="0%" y1="0%" x2="100%" y2="0%"><stop data-v-423bf9ae="" offset="0%" style="stop-color: rgb(69, 89, 170); stop-opacity: 1;"></stop><stop data-v-423bf9ae="" offset="100%" style="stop-color: rgb(69, 170, 105); stop-opacity: 1;"></stop></linearGradient></defs><g data-v-423bf9ae="" id="892f39d2-f0fb-4367-aa0d-a8a931bbc6f8" transform="matrix(1.0189221700032551,0,0,1.0189221700032551,-7.4650078354194775,-4.81651881028786)" stroke="none" fill="url(#5bb2847f-2f16-496f-9cc0-b476a2e79786)"><path clip-rule="evenodd" d="M82.743 28.662c-5.281 0-9.699-3.506-11.181-8.302l-4.053.9-1.102-4.573 4.707-1.045C71.75 9.751 76.68 5.148 82.742 5.148c6.494 0 11.757 5.264 11.757 11.757s-5.262 11.757-11.756 11.757zm0-18.81a7.054 7.054 0 1 0 0 14.109 7.054 7.054 0 0 0 0-14.109zm4.703 65.837c0 11.688-9.475 21.162-21.162 21.162-11.688 0-21.163-9.475-21.163-21.162a21.09 21.09 0 0 1 6.147-14.907l-6.562-7.344 3.45-3.196 6.789 7.599a21.046 21.046 0 0 1 11.339-3.313c11.688-.001 21.162 9.473 21.162 21.161zm-21.162-16.46c-9.091 0-16.46 7.369-16.46 16.46s7.369 16.459 16.46 16.459 16.459-7.368 16.459-16.459-7.368-16.46-16.459-16.46zM51.941 19.902l9.876-2.194 1.103 4.573-9.876 2.193-1.103-4.572zm-11.522 8.76c0 3.549-1.148 6.814-3.059 9.503l7.661 8.572-3.45 3.198-7.491-8.382c-2.799 2.202-6.285 3.569-10.122 3.569-9.091 0-16.459-7.369-16.459-16.459s7.369-16.459 16.459-16.459c6.987 0 12.921 4.371 15.309 10.515l8.082-1.796 1.102 4.573-8.17 1.815c.039.452.138.887.138 1.351zm-16.46-11.791c-6.512 0-11.792 5.279-11.792 11.791s5.28 11.792 11.792 11.792 11.792-5.28 11.792-11.792-5.279-11.791-11.792-11.791z"></path></g><!----></svg>